HIERARCHY
ROOT pelvis
{
	OFFSET 0.000000 0.000000 0.000000
	CHANNELS 6 Xposition Yposition Zposition Zrotation Xrotation Yrotation
	JOINT lfemur
	{
		OFFSET 11.446000 0.000000 0.000000
		CHANNELS 3 Zrotation Xrotation Yrotation
		JOINT ltibia
		{
			OFFSET 0.000000 -42.030400 0.000000
			CHANNELS 3 Zrotation Xrotation Yrotation
			JOINT lfoot
			{
				OFFSET 0.000000 -39.930200 0.000000
				CHANNELS 3 Zrotation Xrotation Yrotation
				JOINT ltoes
				{
					OFFSET 0.000000 0.000000 11.775800
					CHANNELS 3 Zrotation Xrotation Yrotation
					End Site
					{
					    OFFSET 0.000000 0.000000 5.000000
					}
				}
			}
		}
	}
	JOINT rfemur
	{
		OFFSET -11.446000 0.000000 0.000000
		CHANNELS 3 Zrotation Xrotation Yrotation
		JOINT rtibia
		{
			OFFSET 0.000000 -42.030400 0.000000
			CHANNELS 3 Zrotation Xrotation Yrotation
			JOINT rfoot
			{
				OFFSET 0.000000 -39.930200 0.000000
				CHANNELS 3 Zrotation Xrotation Yrotation
				JOINT rtoes
				{
					OFFSET 0.000000 0.000000 11.775800
					CHANNELS 3 Zrotation Xrotation Yrotation
					End Site
					{
					    OFFSET 0.000000 0.000000 5.000000
					}
				}
			}
		}
	}
	JOINT thorax
	{
		OFFSET 0.000000 11.255600 -5.000000
		CHANNELS 3 Zrotation Xrotation Yrotation
		JOINT head
		{
			OFFSET 0.000000 43.799300 0.000000
			CHANNELS 3 Zrotation Xrotation Yrotation
			End Site
			{
			    OFFSET 0.000000 5.000000 0.000000
			}
		}
		JOINT lclavicle
		{
			OFFSET 0.000000 39.863000 0.000000
			CHANNELS 3 Zrotation Xrotation Yrotation
			JOINT lhumerus
			{
				OFFSET 17.380600 4.958300 0.000000
				CHANNELS 3 Zrotation Xrotation Yrotation
				JOINT lradius
				{
					OFFSET 0.000000 -27.561300 0.000000
					CHANNELS 3 Zrotation Xrotation Yrotation
					JOINT lhand
					{
						OFFSET 0.000000 -26.933000 0.000000
						CHANNELS 3 Zrotation Xrotation Yrotation
						End Site
						{
						    OFFSET 0.000000 -5.000000 0.000000
						}
					}
				}
			}
		}
		JOINT rclavicle
		{
			OFFSET 0.000000 39.863000 0.000000
			CHANNELS 3 Zrotation Xrotation Yrotation
			JOINT rhumerus
			{
				OFFSET -17.380600 4.958300 0.000000
				CHANNELS 3 Zrotation Xrotation Yrotation
				JOINT rradius
				{
					OFFSET 0.000000 -27.561300 0.000000
					CHANNELS 3 Zrotation Xrotation Yrotation
					JOINT rhand
					{
						OFFSET 0.000000 -26.933000 0.000000
						CHANNELS 3 Zrotation Xrotation Yrotation
						End Site
						{
						    OFFSET 0.000000 -5.000000 0.000000
						}
					}
				}
			}
		}
	}
}
MOTION
Frames: 6
Frame Time:	0.0333333
144.662800 76.884400 11.860800 8.320387 -15.905531 -141.592634 15.029639 -56.620908 16.634006 -0.000000 51.833951 -0.000000 0.000000 7.070239 8.254141 0.000000 -1.556876 -0.000000 -10.900367 -45.367011 -9.534002 -0.000000 60.527865 -0.000000 0.000000 -16.923190 -1.170512 -0.000000 -29.561236 0.000000 -8.879268 21.037633 3.589263 0.381533 13.671881 28.098756 -8.009136 0.000000 -6.048923 28.155332 2.574800 -8.958181 180.000035 -39.938335 161.666742 31.665969 -4.052123 0.000000 20.381422 0.000000 2.233511 -60.058808 -18.256123 27.647294 -180.000037 -53.580141 -176.628663 -9.576292 -0.244562 -0.000000 
144.368900 76.644700 12.193900 8.901128 -16.001967 -141.253265 15.487848 -57.912881 17.620009 -0.000000 53.280841 -0.000000 0.000000 6.352637 8.744037 -0.000000 -1.538865 0.000000 -10.747755 -45.945334 -8.976012 -0.000000 60.965721 -0.000000 0.000000 -17.042529 -1.755292 -0.000000 -29.560720 -0.000000 -8.063956 21.417766 3.742188 0.067248 13.230650 28.337586 -7.570663 -0.000000 -6.190247 29.676401 2.765605 -9.948897 180.000033 -40.596562 160.858198 31.272537 -4.424295 -0.000000 20.075219 0.000000 1.974710 -62.657245 -22.339951 26.943290 180.000037 -56.724794 -175.982081 -6.875357 -1.160050 -0.000000 
143.801600 76.311300 12.602100 9.389147 -16.259018 -140.854080 15.777365 -59.317704 19.136357 0.000000 54.833948 0.000000 0.000000 6.690157 7.318886 -0.000000 -1.541796 0.000000 -10.715856 -46.609774 -7.977113 0.000000 61.551827 -0.000000 0.000000 -17.437632 -2.950696 -0.000000 -29.560696 -0.000000 -7.173083 21.765344 3.796838 -0.445413 12.987183 28.604886 -6.946140 -0.000000 -6.159009 32.066002 3.102899 -11.161756 -180.000036 -41.788224 160.606209 32.177551 -3.811654 0.000000 19.235898 -0.000000 2.200341 -65.673898 -28.112505 25.583028 -180.000037 -62.099377 -175.603025 -5.393275 -1.661394 0.000000 
142.876700 75.845700 13.085100 9.715546 -16.583777 -140.677668 16.374227 -60.881043 21.300818 0.000000 56.972734 0.000000 0.000000 6.403437 5.858831 -0.000000 -1.530804 0.000000 -11.133458 -47.253013 -7.080903 0.000000 62.458084 0.000000 -0.000000 -17.971905 -4.224548 -0.000000 -29.560652 0.000000 -6.012506 22.153935 4.013665 -1.597915 12.758734 28.805106 -6.877501 0.000000 -5.777629 35.883767 4.286833 -12.227166 -180.000037 -43.189585 159.770510 31.825591 -3.891637 0.000000 17.346122 0.000000 2.338474 -68.314776 -36.442165 24.270276 -180.000037 -69.820224 -176.127176 -4.396142 -1.995130 -0.000000 
141.541400 75.421100 13.636900 9.591192 -17.351021 -140.562140 16.737687 -62.604895 23.713901 0.000000 59.668716 -0.000000 -0.000000 6.806234 3.242123 -0.000000 -1.560537 -0.000000 -12.955154 -47.819413 -7.120006 -0.000000 63.434473 -0.000000 0.000000 -18.498040 -5.236265 -0.000000 -29.561775 -0.000000 -5.269201 22.366272 4.339550 -3.036892 12.570281 28.975761 -6.997396 -0.000000 -4.464427 39.724921 6.789535 -13.641855 -180.000037 -44.896813 160.433940 28.751225 -5.019431 -0.000000 14.935520 -0.000000 2.832012 -71.012279 -45.351458 22.863396 -180.000035 -77.477294 -173.701288 -4.439248 -1.975117 -0.000000 
139.855000 75.036300 14.000000 9.189877 -18.155854 -140.419236 17.716669 -64.204165 26.992066 -0.000000 62.950691 0.000000 0.000000 6.787198 -1.084297 0.000000 -1.669307 0.000000 -15.425347 -47.828646 -7.617465 -0.000000 64.343291 0.000000 0.000000 -19.132121 -5.876457 -0.000000 -29.563640 -0.000000 -4.798693 22.594209 5.556430 -4.494761 12.310148 28.737519 -7.438428 -0.000000 -3.415368 43.478171 11.625800 -15.682166 -180.000033 -46.437565 163.251209 26.083954 -5.643406 0.000000 12.043197 0.000000 3.667723 -74.572264 -52.109522 20.246406 -180.000035 -80.716380 -173.671777 -6.107167 -1.409689 -0.000000 
